<svg width="800" height="500" viewBox="0 0 800 500" fill="none" xmlns="http://www.w3.org/2000/svg">
  <defs>
    <linearGradient id="chatBg" x1="0" y1="0" x2="1" y2="1">
      <stop offset="0%" stop-color="#0ff" />
      <stop offset="100%" stop-color="#a13eff" />
    </linearGradient>
  </defs>
  <rect width="800" height="500" rx="48" fill="url(#chatBg)" />
  <g opacity="0.2">
    <circle cx="160" cy="120" r="70" fill="white" />
    <circle cx="300" cy="260" r="72" fill="white" />
    <circle cx="540" cy="160" r="52" fill="white" />
  </g>
  <rect x="120" y="120" width="250" height="160" rx="24" fill="#050c1d" opacity="0.96" />
  <rect x="140" y="146" width="210" height="24" rx="12" fill="#1c48ff" />
  <rect x="140" y="186" width="210" height="16" rx="8" fill="#5fd3ff" />
  <rect x="140" y="214" width="180" height="16" rx="8" fill="#5fd3ff" />
  <rect x="140" y="242" width="120" height="16" rx="8" fill="#5fd3ff" />
  <circle cx="520" cy="280" r="80" fill="#040d22" opacity="0.9" />
  <path d="M476 254 C492 214 536 214 552 254 L552 294 C536 334 492 334 476 294 Z" fill="#00f5ff" opacity="0.8" />
  <path d="M484 274 L520 292 L548 266" stroke="#fff" stroke-width="10" stroke-linecap="round" stroke-linejoin="round" />
  <text x="120" y="80" fill="#fff" font-size="46" font-family="Inter, sans-serif" font-weight="700">Clixter</text>
  <text x="120" y="122" fill="#a6f3ff" font-size="18" font-family="Inter, sans-serif">MERN Chat App</text>
</svg>
